<svg xmlns="http://www.w3.org/2000/svg" xmlns:xlink="http://www.w3.org/1999/xlink" fill="none" version="1.1" width="19.715442657470703" height="20.08243179321289" viewBox="0 0 19.715442657470703 20.08243179321289"><g><path d="M1.42433,3.6241L5.27433,6.54077L9.1115,0.436599C9.47705,-0.145533,10.2383,-0.145533,10.6038,0.436599L14.441,6.54077L18.291,3.6241C18.5885,3.39917,18.9739,3.39121,19.2784,3.6037C19.583,3.8162,19.751,4.21042,19.7091,4.61368L18.203,19.1626C18.1486,19.6872,17.7574,20.0824,17.2927,20.0824L2.42258,20.0824C1.95785,20.0824,1.5667,19.6871,1.51233,19.1626L0.0062454,4.61264C-0.0353057,4.20956,0.132941,3.81575,0.437364,3.60354C0.741787,3.39132,1.12696,3.39935,1.42433,3.6241ZM9.85766,13.8324C10.8702,13.8324,11.691,12.8997,11.691,11.7491C11.691,10.5985,10.8702,9.66577,9.85766,9.66577C8.84514,9.66577,8.02433,10.5985,8.02433,11.7491C8.02433,12.8997,8.84514,13.8324,9.85766,13.8324Z" fill="#F0E163" fill-opacity="1"/></g></svg>